<svg width="147" height="163" viewBox="0 0 147 163" fill="none" xmlns="http://www.w3.org/2000/svg">
<rect x="0.592773" y="42.2793" width="107.204" height="24.699" transform="rotate(-23.1765 0.592773 42.2793)" fill="#7F8CFF"/>
<path d="M146.696 72.8419C141.725 64.0178 134.746 56.4883 126.324 50.8631C117.901 45.2379 108.273 41.6752 98.2174 40.4634C88.1621 39.2515 77.9628 40.4247 68.4452 43.8878C58.9276 47.351 50.3594 53.0067 43.4342 60.3972C36.509 67.7877 31.4215 76.7051 28.5837 86.4275C25.7458 96.1498 25.2374 106.404 27.0996 116.359C28.9618 126.315 33.1422 135.692 39.3024 143.731C45.4626 151.77 53.4294 158.246 62.5577 162.633L74.5813 137.618C69.3809 135.119 64.8422 131.43 61.3328 126.85C57.8233 122.27 55.4418 116.928 54.3809 111.256C53.32 105.585 53.6096 99.7429 55.2263 94.2041C56.843 88.6653 59.7414 83.585 63.6866 79.3747C67.6319 75.1643 72.5133 71.9423 77.9354 69.9693C83.3576 67.9964 89.1681 67.328 94.8966 68.0184C100.625 68.7088 106.111 70.7385 110.909 73.9431C115.707 77.1478 119.683 81.4373 122.515 86.4644L146.696 72.8419Z" fill="white"/>
</svg>
