<svg width="272" height="286" viewBox="0 0 272 286" fill="none" xmlns="http://www.w3.org/2000/svg">
<path d="M271.581 130.028C262.949 114.705 250.83 101.631 236.205 91.863C221.581 82.0953 204.861 75.9088 187.401 73.8046C169.94 71.7003 152.23 73.7374 135.703 79.751C119.177 85.7645 104.298 95.5853 92.2733 108.418C80.2481 121.251 71.414 136.736 66.4863 153.618C61.5587 170.5 60.6758 188.306 63.9094 205.593C67.143 222.88 74.402 239.162 85.0988 253.122C95.7955 267.081 109.629 278.326 125.48 285.945L146.358 242.508C137.328 238.168 129.447 231.762 123.353 223.809C117.259 215.856 113.124 206.58 111.282 196.732C109.439 186.883 109.942 176.74 112.75 167.122C115.557 157.504 120.59 148.683 127.44 141.372C134.291 134.061 142.767 128.466 152.182 125.04C161.598 121.614 171.687 120.453 181.634 121.652C191.582 122.851 201.107 126.375 209.438 131.94C217.77 137.505 224.674 144.953 229.592 153.682L271.581 130.028Z" fill="#6070FF"/>
<rect y="102" width="204" height="47" transform="rotate(-30 0 102)" fill="#EBEBFF"/>
</svg>
