<svg width="53" height="56" viewBox="0 0 53 56" fill="none" xmlns="http://www.w3.org/2000/svg">
<path d="M41.2341 55.7825C43.5564 53.0166 45.1946 49.7426 46.0163 46.2258C46.8379 42.7089 46.8197 39.048 45.9633 35.5395C45.1069 32.0309 43.4363 28.7734 41.0868 26.0305C38.7373 23.2877 35.7748 21.1368 32.4394 19.7518C29.1039 18.3668 25.4892 17.7868 21.8879 18.0587C18.2866 18.3306 14.7999 19.4467 11.7102 21.3167C8.6205 23.1867 6.01458 25.7581 4.10345 28.8225C2.19233 31.887 1.02972 35.3584 0.709762 38.9558L10.5678 39.8326C10.7501 37.7832 11.4124 35.8055 12.5012 34.0597C13.5899 32.3139 15.0745 30.849 16.8347 29.7836C18.5949 28.7183 20.5813 28.0824 22.6329 27.9275C24.6846 27.7726 26.7439 28.1031 28.6441 28.8921C30.5443 29.6811 32.232 30.9065 33.5705 32.4691C34.909 34.0317 35.8608 35.8875 36.3487 37.8863C36.8366 39.8851 36.8469 41.9707 36.3788 43.9743C35.9108 45.9778 34.9774 47.843 33.6545 49.4188L41.2341 55.7825Z" fill="#EBEBFF"/>
<path d="M16.1553 -7.03308e-05C15.8209 4.88119 17.4393 9.69535 20.6544 13.3834C23.8695 17.0714 28.418 19.3311 33.2993 19.6655C38.1806 19.9999 42.9947 18.3815 46.6827 15.1664C50.3707 11.9512 52.6305 7.40273 52.9649 2.52147L16.1553 -7.03308e-05Z" fill="#6070FF"/>
</svg>
