<svg width="65" height="113" viewBox="0 0 65 113" fill="none" xmlns="http://www.w3.org/2000/svg">
<rect y="29.3994" width="74.7012" height="17.2106" transform="rotate(-23.1765 0 29.3994)" fill="#7F8CFF"/>
<path d="M102.207 50.4103C98.7385 44.3223 93.8692 39.1276 87.9932 35.2466C82.1172 31.3657 75.3996 28.9077 68.3842 28.0716C61.3689 27.2356 54.2531 28.045 47.6129 30.4343C40.9728 32.8235 34.9949 36.7256 30.1634 41.8244C25.3318 46.9233 21.7824 53.0756 19.8025 59.7833C17.8227 66.491 17.468 73.5655 18.7672 80.4339C20.0664 87.3023 22.983 93.7717 27.2808 99.3182C31.5786 104.865 37.1368 109.332 43.5054 112.359L51.8939 95.1011C48.2658 93.3766 45.0992 90.8314 42.6508 87.6716C40.2023 84.5117 38.5408 80.8261 37.8006 76.9132C37.0605 73.0003 37.2625 68.9699 38.3905 65.1486C39.5184 61.3272 41.5405 57.8222 44.293 54.9174C47.0455 52.0126 50.4511 49.7896 54.234 48.4285C58.0169 47.0673 62.0708 46.6062 66.0674 47.0825C70.064 47.5588 73.891 48.9591 77.2386 51.1701C80.5862 53.381 83.3602 56.3405 85.336 59.8088L102.207 50.4103Z" fill="white"/>
</svg>
