<svg width="81" height="140" viewBox="0 0 81 140" fill="none" xmlns="http://www.w3.org/2000/svg">
<path d="M127.241 60.9701C123.195 53.7876 117.514 47.659 110.659 43.0803C103.803 38.5017 95.9662 35.6018 87.7816 34.6154C79.5971 33.6291 71.2953 34.584 63.5484 37.4028C55.8016 40.2216 48.8274 44.8252 43.1906 50.8407C37.5538 56.8562 33.4128 64.1145 31.103 72.0281C28.7931 79.9416 28.3793 88.2879 29.895 96.3911C31.4108 104.494 34.8134 112.127 39.8275 118.67C44.8416 125.214 51.3262 130.485 58.7563 134.056L68.5429 113.695C64.31 111.661 60.6158 108.658 57.7592 104.93C54.9027 101.202 52.9642 96.8539 52.1007 92.2375C51.2372 87.6211 51.4729 82.8662 52.7889 78.3579C54.1048 73.8496 56.4639 69.7145 59.6752 66.2874C62.8864 62.8604 66.8596 60.2378 71.273 58.6319C75.6864 57.026 80.4159 56.482 85.0786 57.044C89.7414 57.6059 94.2062 59.258 98.1117 61.8664C102.017 64.4748 105.254 67.9663 107.559 72.0582L127.241 60.9701Z" fill="#6070FF"/>
<rect y="47.79" width="95.5804" height="22.021" transform="rotate(-30 0 47.79)" fill="#EBEBFF"/>
</svg>
