<svg width="39" height="47" viewBox="0 0 39 47" fill="none" xmlns="http://www.w3.org/2000/svg">
<path d="M30.9067 36.4993C32.4263 34.6894 33.4982 32.5472 34.0358 30.246C34.5734 27.9448 34.5616 25.5493 34.0012 23.2535C33.4408 20.9578 32.3477 18.8262 30.8103 17.0315C29.2729 15.2368 27.3345 13.8293 25.152 12.9231C22.9695 12.0169 20.6043 11.6374 18.2478 11.8153C15.8914 11.9931 13.6099 12.7235 11.5882 13.9471C9.56648 15.1707 7.86134 16.8532 6.61082 18.8584C5.3603 20.8636 4.59957 23.1351 4.39021 25.489L10.8406 26.0627C10.9599 24.7217 11.3933 23.4276 12.1057 22.2853C12.8181 21.1429 13.7896 20.1844 14.9413 19.4873C16.0931 18.7902 17.3928 18.3741 18.7353 18.2728C20.0778 18.1714 21.4253 18.3877 22.6686 18.9039C23.912 19.4202 25.0163 20.222 25.8922 21.2445C26.768 22.2669 27.3908 23.4813 27.71 24.7892C28.0292 26.0971 28.036 27.4618 27.7297 28.7727C27.4235 30.0837 26.8128 31.3042 25.9471 32.3353L30.9067 36.4993Z" fill="#EBEBFF"/>
<path d="M14.497 -0.000453654C14.2782 3.19352 15.3371 6.3436 17.4409 8.75679C19.5447 11.17 22.5209 12.6486 25.7149 12.8674C28.9089 13.0862 32.059 12.0272 34.4722 9.92347C36.8853 7.8197 38.364 4.84345 38.5828 1.64948L14.497 -0.000453654Z" fill="#6070FF"/>
</svg>
